<?xml version="1.0" standalone="no"?>
<!DOCTYPE svg PUBLIC "-//W3C//DTD SVG 20010904//EN"
 "http://www.w3.org/TR/2001/REC-SVG-20010904/DTD/svg10.dtd">
<svg version="1.0" xmlns="http://www.w3.org/2000/svg"
 width="1152.000000pt" height="2048.000000pt" viewBox="0 0 1152.000000 2048.000000"
 preserveAspectRatio="xMidYMid meet">

<g transform="translate(0.000000,2048.000000) scale(0.100000,-0.100000)"
fill="#000000" stroke="none">
<path d="M7075 12090 c-49 -5 -110 -16 -134 -24 -24 -9 -50 -16 -59 -16 -44 0
-239 -99 -337 -172 -132 -98 -294 -315 -333 -448 -6 -19 -20 -62 -32 -95 -43
-115 -53 -176 -55 -321 -1 -77 -5 -146 -9 -153 -4 -6 -16 -9 -26 -6 -96 30
-565 53 -745 36 -256 -24 -744 -162 -856 -241 -63 -46 -74 -123 -24 -170 48
-45 127 -43 313 11 59 17 132 37 162 45 67 17 404 44 555 44 171 0 486 -31
605 -59 381 -89 511 -135 845 -297 303 -148 683 -452 1014 -812 118 -129 161
-157 230 -149 96 11 135 121 81 227 -22 43 -252 294 -317 347 -26 21 -63 53
-81 71 -33 31 -34 34 -27 87 5 46 3 60 -17 95 l-23 42 25 16 c44 31 69 61 79
99 14 48 14 140 1 148 -21 13 -10 35 18 35 38 -2 141 23 177 42 46 24 80 66
120 146 68 137 103 291 91 405 -8 75 -48 242 -85 354 -94 283 -314 519 -588
632 -172 71 -372 99 -568 81z m241 -389 c5 -5 32 -14 59 -21 28 -6 61 -14 75
-17 14 -3 37 -14 52 -24 14 -11 31 -19 38 -19 6 0 25 -13 43 -30 18 -16 35
-30 39 -30 12 0 104 -95 123 -127 11 -18 23 -33 27 -33 4 0 8 -8 8 -18 0 -10
11 -42 25 -70 14 -29 25 -58 25 -66 0 -8 5 -18 10 -21 6 -3 10 -24 10 -45 0
-21 5 -42 10 -45 14 -9 12 -49 -2 -63 -10 -10 -10 -15 2 -22 12 -7 12 -12 3
-21 -9 -9 -9 -16 -2 -25 7 -8 7 -14 -1 -19 -5 -3 -10 -23 -10 -43 0 -20 -11
-61 -25 -90 -14 -30 -25 -62 -25 -71 0 -9 -5 -22 -10 -27 -6 -6 -11 -51 -11
-102 -2 -85 0 -94 25 -126 14 -19 26 -37 26 -40 0 -9 -38 -7 -44 2 -7 12 -84
14 -91 2 -3 -6 -15 -10 -26 -10 -10 0 -19 -4 -19 -10 0 -5 -6 -10 -13 -10 -15
0 -44 -31 -64 -67 -22 -39 -16 -119 12 -163 35 -56 10 -53 -52 5 -26 25 -51
45 -56 45 -4 0 -20 12 -35 26 -15 14 -44 34 -64 45 -21 11 -38 24 -38 29 0 6
-5 10 -11 10 -6 0 -25 11 -43 25 -18 14 -38 25 -43 25 -6 0 -16 7 -23 15 -7 9
-29 23 -49 32 -20 9 -49 27 -64 40 -16 13 -33 23 -38 23 -6 0 -30 14 -54 30
-24 17 -48 30 -54 30 -40 0 47 79 160 146 32 19 59 46 74 76 56 113 -1 226
-124 244 -52 8 -139 -16 -166 -46 -10 -11 -23 -20 -30 -20 -25 0 -147 -137
-177 -201 -17 -35 -33 -66 -34 -68 -5 -6 -144 31 -150 40 -3 5 -16 9 -28 9
-41 0 -51 25 -48 119 2 47 7 90 13 96 5 5 9 28 9 52 0 74 72 268 120 323 11
13 20 28 20 35 0 7 9 20 20 30 11 10 20 22 20 27 0 19 133 128 157 128 7 0 13
5 13 10 0 6 6 10 14 10 8 0 39 14 69 30 30 17 66 30 79 30 12 0 34 7 48 14 29
16 280 22 296 7z m574 -1261 c0 -5 -7 -7 -15 -4 -8 4 -15 8 -15 10 0 2 7 4 15
4 8 0 15 -4 15 -10z"/>
<path d="M3990 10958 c-36 -19 -47 -30 -54 -59 -5 -20 -6 -49 -2 -64 8 -30
109 -135 161 -166 58 -36 155 -14 185 42 7 13 10 45 8 76 -4 46 -10 60 -44 94
-45 47 -80 67 -149 85 -63 17 -53 18 -105 -8z"/>
<path d="M3443 10650 c-43 -10 -119 -55 -138 -82 -47 -68 8 -152 107 -162 29
-3 95 -8 147 -11 52 -3 106 -12 122 -20 41 -22 118 -19 157 5 84 52 74 188
-18 235 -66 34 -292 55 -377 35z"/>
<path d="M3230 10251 c-55 -18 -158 -76 -205 -116 -27 -23 -68 -53 -90 -67
-22 -14 -71 -44 -110 -68 -144 -90 -254 -181 -377 -312 -68 -73 -139 -153
-158 -178 -18 -25 -39 -49 -45 -55 -17 -14 -203 -293 -227 -338 -10 -21 -24
-37 -31 -34 -6 2 -25 31 -42 64 -77 151 -203 264 -410 368 -162 81 -219 95
-402 95 -186 0 -268 -21 -442 -110 -276 -143 -528 -429 -648 -736 l-38 -99 -3
-360 c-3 -372 0 -413 39 -515 57 -148 112 -236 211 -338 162 -167 355 -242
588 -229 113 6 154 18 267 74 90 44 133 87 157 155 11 29 23 59 29 66 14 18
-29 98 -69 128 -17 13 -43 24 -57 24 -14 0 -29 5 -32 10 -3 6 -26 10 -50 10
-24 0 -47 -4 -50 -10 -3 -5 -15 -10 -26 -10 -10 0 -27 -4 -37 -9 -55 -30 -224
-41 -291 -19 -74 23 -101 40 -151 91 -54 54 -130 158 -130 177 0 6 -11 31 -25
56 -14 25 -25 60 -25 79 0 18 -4 36 -9 39 -4 3 -14 53 -21 112 -10 85 -10 128
1 220 7 63 16 114 21 114 4 0 8 17 8 38 0 21 4 42 8 48 4 5 16 34 26 64 25 76
57 140 84 170 13 14 31 41 39 60 20 46 231 256 276 275 19 8 41 20 49 27 23
22 52 35 134 63 44 15 83 31 88 36 17 16 240 11 272 -6 16 -8 37 -15 46 -15 9
0 20 -4 23 -10 3 -5 17 -10 29 -10 13 0 29 -6 35 -14 7 -8 23 -17 36 -20 14
-4 25 -11 25 -16 0 -6 6 -10 14 -10 22 0 156 -110 156 -128 0 -5 9 -17 20 -27
11 -10 20 -23 20 -30 0 -7 11 -25 25 -41 14 -16 25 -34 25 -40 0 -5 14 -23 30
-39 32 -30 36 -44 21 -73 -54 -105 -103 -231 -116 -303 -6 -31 -2 -44 27 -85
75 -107 177 -86 228 46 23 59 132 278 200 399 104 190 179 297 350 506 185
225 422 417 617 499 209 88 283 153 283 246 0 48 -62 108 -120 114 -25 3 -56
1 -70 -3z"/>
<path d="M8492 9683 c-46 -22 -76 -90 -80 -184 -4 -73 -3 -77 28 -112 34 -40
78 -54 130 -42 47 10 93 86 86 141 -19 147 -90 233 -164 197z"/>
<path d="M8820 9316 c-65 -20 -100 -59 -100 -110 0 -38 37 -92 73 -107 93 -39
226 64 195 153 -18 51 -104 84 -168 64z"/>
<path d="M8532 9051 c-88 -23 -120 -113 -64 -179 24 -29 45 -38 167 -72 357
-101 558 -267 808 -663 107 -172 196 -367 288 -634 66 -191 69 -203 105 -423
43 -267 44 -272 75 -317 38 -54 74 -73 142 -73 43 0 61 5 90 28 97 74 108 186
47 457 -5 22 -16 72 -25 110 -53 239 -129 448 -264 724 -123 251 -186 347
-355 539 -132 150 -180 190 -363 303 -184 113 -272 154 -398 183 -79 19 -211
27 -253 17z"/>
<path d="M6855 8701 c-27 -11 -86 -33 -130 -49 -225 -84 -416 -182 -469 -241
-24 -26 -32 -102 -16 -141 16 -38 67 -70 113 -70 87 0 138 19 442 160 33 15
91 38 128 50 109 35 157 88 157 174 0 36 -6 52 -31 80 -29 34 -80 56 -124 56
-11 -1 -42 -9 -70 -19z"/>
<path d="M1145 8558 c-104 -18 -177 -68 -223 -154 -27 -52 -17 -95 34 -144
l35 -35 115 3 c110 3 117 1 167 -26 78 -42 127 -54 168 -41 116 37 149 77 149
179 0 103 -62 175 -165 194 -178 31 -216 35 -280 24z"/>
<path d="M1366 8011 c-4 -6 -18 -11 -30 -11 -13 0 -42 -17 -66 -39 -35 -32
-43 -46 -47 -84 -3 -25 -3 -57 1 -71 7 -28 83 -106 103 -106 18 0 17 -52 -3
-98 -11 -25 -14 -52 -9 -87 3 -27 1 -66 -5 -85 -16 -56 -24 -269 -11 -315 25
-94 118 -130 181 -70 33 31 60 106 60 164 0 58 37 292 53 336 8 22 31 83 52
135 38 98 42 149 14 201 -16 30 -70 59 -111 59 -23 0 -42 6 -50 18 -18 24 -53
42 -81 42 -13 0 -28 5 -34 11 -8 8 -13 8 -17 0z"/>
<path d="M5087 7758 c-29 -14 -44 -32 -63 -73 -14 -30 -29 -57 -34 -60 -18
-11 -50 -88 -50 -121 0 -27 9 -44 38 -76 37 -39 41 -41 96 -40 52 0 62 4 92
33 19 18 34 38 34 44 0 6 12 22 26 36 40 37 64 92 64 148 0 45 -4 54 -41 91
-35 34 -46 40 -82 39 -23 -1 -59 -10 -80 -21z"/>
<path d="M4443 7514 c-18 -7 -37 -22 -42 -33 -16 -29 -30 -101 -20 -101 5 0 9
-8 9 -18 0 -23 60 -82 83 -82 9 0 17 -4 17 -10 0 -5 13 -10 29 -10 17 0 32 -4
35 -9 3 -5 23 -12 43 -16 87 -15 173 -3 180 26 3 11 9 19 14 19 5 0 9 29 9 65
0 63 -2 67 -40 105 -22 22 -49 40 -60 40 -11 0 -28 4 -38 9 -56 30 -167 38
-219 15z"/>
<path d="M3085 7375 c-58 -16 -156 -53 -170 -65 -5 -5 -59 -33 -120 -63 -121
-60 -181 -112 -191 -162 -12 -67 53 -135 131 -135 22 0 87 16 145 35 58 19
157 49 220 67 97 27 121 38 157 71 139 128 19 305 -172 252z"/>
<path d="M4962 7055 c-27 -15 -52 -57 -52 -89 0 -12 9 -46 20 -76 11 -30 20
-63 20 -72 0 -10 5 -18 10 -18 6 0 10 -9 10 -19 0 -11 5 -23 10 -26 6 -3 10
-14 10 -25 0 -10 8 -35 19 -57 10 -21 26 -63 36 -93 10 -30 22 -59 26 -64 5
-6 9 -18 9 -28 0 -10 5 -18 10 -18 6 0 10 -10 10 -21 0 -12 20 -62 45 -111 25
-49 45 -95 45 -102 0 -7 13 -37 29 -67 15 -30 36 -79 46 -109 10 -30 21 -63
26 -72 5 -10 9 -34 9 -53 0 -42 48 -147 85 -187 32 -35 32 -40 -7 -56 -64 -26
-153 -66 -165 -75 -18 -13 -43 -67 -43 -92 0 -34 60 -91 104 -99 41 -8 122 11
189 45 22 10 45 19 53 19 7 0 28 8 46 18 18 10 53 26 78 36 96 40 213 99 230
116 30 30 40 56 40 102 0 57 -20 83 -73 96 -50 13 -95 4 -169 -35 -52 -27 -68
-24 -68 13 0 14 -7 27 -15 30 -8 4 -15 13 -15 21 0 7 -9 33 -20 55 -11 23 -20
49 -20 58 0 9 -9 25 -20 35 -11 10 -20 23 -20 29 0 6 -6 22 -13 36 -7 14 -19
46 -26 73 -8 26 -18 50 -22 53 -5 3 -9 16 -9 29 0 13 -4 27 -10 30 -5 3 -10
19 -10 35 0 16 -4 32 -10 35 -5 3 -10 15 -10 26 0 10 -4 27 -9 37 -5 9 -15 37
-22 61 -7 24 -19 49 -26 57 -7 7 -13 29 -13 48 0 20 -4 36 -9 36 -5 0 -12 15
-15 33 -3 17 -12 44 -20 59 -8 15 -17 40 -21 56 -3 17 -15 38 -26 48 -10 9
-19 25 -19 36 0 10 -4 26 -9 36 -14 28 -29 65 -36 89 -3 12 -22 38 -42 58 -30
30 -41 35 -81 34 -26 -1 -58 -7 -70 -14z"/>
<path d="M1345 6893 c-67 -34 -93 -60 -106 -104 -14 -46 2 -84 51 -117 30 -20
43 -23 89 -19 142 15 234 129 170 211 -48 61 -122 71 -204 29z"/>
<path d="M9863 6581 c-82 -52 -81 -145 3 -257 56 -76 158 -82 227 -14 33 33
37 43 37 87 0 64 -26 104 -102 156 -70 48 -120 56 -165 28z"/>
<path d="M1285 6541 c-145 -71 -331 -337 -403 -576 -63 -210 -78 -437 -42
-645 25 -153 54 -249 103 -346 94 -187 356 -466 530 -563 31 -18 57 -39 57
-48 0 -9 -45 -62 -100 -119 -54 -57 -107 -116 -117 -131 -9 -15 -32 -47 -51
-70 -19 -23 -61 -107 -94 -185 -82 -196 -91 -291 -28 -323 70 -36 126 -7 159
80 27 71 78 172 91 180 6 3 34 39 64 78 120 162 293 322 456 423 144 88 434
202 670 263 54 14 286 41 349 41 43 0 110 -18 121 -31 3 -4 28 -9 55 -13 103
-11 141 -17 160 -26 11 -4 50 -16 88 -25 37 -10 70 -21 73 -26 3 -5 14 -9 25
-9 10 0 19 -4 19 -10 0 -5 12 -10 28 -11 15 0 41 -9 57 -19 17 -11 45 -27 63
-36 17 -9 32 -20 32 -25 0 -5 8 -9 18 -9 10 0 24 -9 32 -20 8 -11 20 -20 27
-20 7 0 17 -9 23 -20 6 -11 16 -20 23 -20 7 0 44 -32 84 -70 39 -39 75 -70 78
-70 10 0 35 -27 35 -38 0 -4 12 -19 26 -33 41 -38 81 -101 99 -157 10 -29 21
-55 26 -58 5 -3 9 -17 9 -32 0 -16 8 -34 20 -42 11 -8 20 -22 20 -31 0 -22 63
-77 95 -84 14 -3 36 -7 50 -10 66 -14 195 66 195 121 0 12 5 26 10 29 27 17 2
174 -35 215 -12 14 -37 55 -54 91 -46 94 -236 343 -318 415 -115 102 -213 170
-328 227 -307 154 -697 218 -1031 172 -241 -34 -521 -120 -694 -214 -8 -4 -64
-35 -125 -68 -60 -32 -118 -62 -127 -66 -35 -13 -137 53 -268 174 -135 125
-195 200 -252 314 -111 220 -141 431 -98 673 36 201 98 332 222 467 118 130
145 199 110 279 -40 89 -127 110 -237 57z"/>
<path d="M9873 6135 c-33 -26 -56 -81 -68 -165 -4 -25 -18 -74 -32 -110 -47
-126 -38 -254 20 -295 36 -25 124 -20 168 11 72 50 98 140 102 352 2 133 0
149 -18 174 -47 62 -118 75 -172 33z"/>
<path d="M8635 5585 c-5 -2 -64 -9 -131 -14 -232 -20 -656 -105 -879 -175
-253 -79 -457 -167 -610 -264 -246 -156 -441 -349 -602 -597 -84 -129 -225
-429 -269 -575 -57 -187 -69 -255 -67 -372 2 -112 4 -120 35 -179 18 -34 44
-73 58 -85 181 -166 215 -192 315 -242 147 -74 317 -119 610 -162 44 -6 121
-18 170 -26 202 -32 732 -13 1110 40 315 45 636 123 969 237 184 63 222 80
275 126 54 46 71 80 71 146 0 95 -65 157 -165 157 -58 0 -125 -18 -325 -89
-344 -122 -878 -235 -904 -192 -5 8 -12 9 -19 3 -60 -47 -1224 -47 -1253 -1
-3 5 -36 9 -74 9 -38 0 -72 5 -75 10 -3 6 -15 10 -25 10 -29 0 -152 41 -171
57 -8 7 -28 13 -42 13 -15 0 -27 5 -27 10 0 6 -8 10 -17 11 -10 0 -31 9 -48
20 -16 10 -37 22 -45 26 -23 11 -94 86 -109 115 -23 45 5 243 40 282 5 6 9 20
9 32 0 13 5 26 10 29 6 3 10 15 10 25 0 10 11 40 25 66 14 26 25 55 25 64 0
10 7 23 15 30 9 7 27 37 40 66 13 29 29 55 34 58 6 4 18 24 28 44 9 20 23 43
30 50 8 8 20 27 29 43 8 17 36 51 62 77 26 26 54 58 62 71 26 41 219 230 250
244 8 4 35 23 60 42 25 19 61 42 80 51 19 10 44 25 55 34 11 9 40 24 65 35 62
25 153 65 166 73 6 4 23 15 37 25 22 16 142 57 302 104 49 14 211 52 310 72
217 45 449 70 652 71 399 0 701 -91 950 -289 102 -81 151 -133 223 -241 82
-122 144 -302 159 -464 18 -184 37 -233 98 -257 55 -21 121 1 142 48 16 35 13
227 -5 313 -90 437 -251 707 -534 896 -167 112 -179 118 -321 172 -167 64
-200 71 -504 112 -74 9 -337 13 -360 5z"/>
<path d="M10125 3883 c-65 -17 -145 -112 -145 -174 0 -60 66 -119 133 -119 46
0 117 49 146 101 60 106 -19 220 -134 192z"/>
<path d="M4314 3608 c-16 -18 -38 -50 -47 -71 -13 -30 -28 -43 -65 -58 -26
-11 -55 -24 -64 -29 -10 -6 -25 -10 -33 -10 -8 0 -15 -4 -15 -10 0 -5 -8 -10
-18 -10 -11 0 -27 -9 -37 -20 -10 -11 -23 -20 -28 -20 -9 0 -95 -38 -139 -61
-10 -5 -27 -9 -37 -9 -11 0 -23 -4 -26 -10 -3 -5 -16 -10 -29 -10 -12 0 -31
-7 -42 -15 -10 -8 -29 -15 -41 -15 -12 0 -25 -4 -28 -10 -3 -5 -24 -10 -46
-10 -21 0 -39 -4 -39 -10 0 -5 -13 -10 -29 -10 -17 0 -32 -4 -35 -9 -3 -4 -25
-11 -48 -14 -103 -14 -184 -29 -203 -37 -29 -13 -114 -20 -360 -26 -121 -3
-224 -9 -230 -14 -24 -18 -81 -20 -262 -5 -241 18 -327 31 -523 77 -153 36
-188 39 -230 22 -83 -33 -99 -127 -35 -203 60 -70 324 -178 523 -212 28 -5 78
-14 110 -19 202 -36 718 -59 912 -40 362 34 771 159 1065 325 59 33 120 81
190 148 28 27 62 59 77 73 47 44 78 120 78 191 0 62 0 63 -52 113 -51 50 -51
50 -118 50 -62 0 -68 -2 -96 -32z"/>
</g>
</svg>
